{
  "accessors": [
    {
      "bufferView": 2,
      "componentType": 5126,
      "count": 352,
      "max": [
        0.156808003783226,
        1.0,
        0.15467999875545502
      ],
      "min": [
        -0.14463600516319275,
        0.9786739945411682,
        -0.32595598697662354
      ],
      "type": "VEC3"
    },
    {
      "bufferView": 2,
      "byteOffset": 4224,
      "componentType": 5126,
      "count": 352,
      "max": [
        0.9997503757476807,
        0.9998670220375061,
        1.0
      ],
      "min": [
        -0.9999071359634399,
        -0.999904215335846,
        -1.0
      ],
      "type": "VEC3"
    },
    {
      "bufferView": 3,
      "componentType": 5126,
      "count": 352,
      "max": [
        1.0,
        1.0,
        0.9485853314399719,
        1.0
      ],
      "min": [
        -0.9444579482078552,
        -1.0,
        -0.9737319946289063,
        1.0
      ],
      "type": "VEC4"
    },
    {
      "bufferView": 1,
      "componentType": 5126,
      "count": 352,
      "max": [
        0.8964869976043701,
        0.9407550096511841
      ],
      "min": [
        0.337321013212204,
        0.6903420090675354
      ],
      "type": "VEC2"
    },
    {
      "bufferView": 0,
      "componentType": 5125,
      "count": 1536,
      "type": "SCALAR"
    },
    {
      "bufferView": 2,
      "byteOffset": 8448,
      "componentType": 5126,
      "count": 623,
      "max": [
        0.41910499334335327,
        0.998045027256012,
        0.4160279929637909
      ],
      "min": [
        -0.41482099890708923,
        0.9473879933357239,
        -0.41789698600769043
      ],
      "type": "VEC3"
    },
    {
      "bufferView": 2,
      "byteOffset": 15924,
      "componentType": 5126,
      "count": 623,
      "max": [
        1.0,
        1.0,
        1.0
      ],
      "min": [
        -1.0,
        -0.9981067776679993,
        -1.0
      ],
      "type": "VEC3"
    },
    {
      "bufferView": 3,
      "byteOffset": 5632,
      "componentType": 5126,
      "count": 623,
      "max": [
        1.0,
        1.0,
        1.0,
        1.0
      ],
      "min": [
        -1.0,
        -0.9826200604438782,
        -1.0,
        1.0
      ],
      "type": "VEC4"
    },
    {
      "bufferView": 1,
      "byteOffset": 2816,
      "componentType": 5126,
      "count": 623,
      "max": [
        0.989192008972168,
        0.9939200282096863
      ],
      "min": [
        0.005114709958434105,
        0.6754869818687439
      ],
      "type": "VEC2"
    },
    {
      "bufferView": 0,
      "byteOffset": 6144,
      "componentType": 5125,
      "count": 2598,
      "type": "SCALAR"
    },
    {
      "bufferView": 2,
      "byteOffset": 23400,
      "componentType": 5126,
      "count": 542,
      "max": [
        0.537667989730835,
        0.9753699898719788,
        0.537667989730835
      ],
      "min": [
        -0.537667989730835,
        -1.0,
        -0.537667989730835
      ],
      "type": "VEC3"
    },
    {
      "bufferView": 2,
      "byteOffset": 29904,
      "componentType": 5126,
      "count": 542,
      "max": [
        1.0,
        0.48177725076675415,
        1.0
      ],
      "min": [
        -1.0,
        -0.9988307356834412,
        -1.0
      ],
      "type": "VEC3"
    },
    {
      "bufferView": 3,
      "byteOffset": 15600,
      "componentType": 5126,
      "count": 542,
      "max": [
        1.0,
        0.9316786527633667,
        1.0,
        1.0
      ],
      "min": [
        -1.0,
        -0.9316332340240479,
        -1.0,
        1.0
      ],
      "type": "VEC4"
    },
    {
      "bufferView": 1,
      "byteOffset": 7800,
      "componentType": 5126,
      "count": 542,
      "max": [
        0.9985349774360657,
        0.9888409972190857
      ],
      "min": [
        0.0014648400247097015,
        0.0014648400247097015
      ],
      "type": "VEC2"
    },
    {
      "bufferView": 0,
      "byteOffset": 16536,
      "componentType": 5125,
      "count": 2934,
      "type": "SCALAR"
    }
  ],
  "asset": {
    "extras": {
      "author": "MihailoJova (https://sketchfab.com/MihailoJova)",
      "license": "CC-BY-4.0 (http://creativecommons.org/licenses/by/4.0/)",
      "source": "https://sketchfab.com/3d-models/old-coca-cola-can-ba31c57e764e4ed6bad5360ec47f2241",
      "title": "Old Coca Cola can"
    },
    "generator": "Sketchfab-12.67.0",
    "version": "2.0"
  },
  "bufferViews": [
    {
      "buffer": 0,
      "byteLength": 28272,
      "name": "floatBufferViews",
      "target": 34963
    },
    {
      "buffer": 0,
      "byteLength": 12136,
      "byteOffset": 28272,
      "byteStride": 8,
      "name": "floatBufferViews",
      "target": 34962
    },
    {
      "buffer": 0,
      "byteLength": 36408,
      "byteOffset": 40408,
      "byteStride": 12,
      "name": "floatBufferViews",
      "target": 34962
    },
    {
      "buffer": 0,
      "byteLength": 24272,
      "byteOffset": 76816,
      "byteStride": 16,
      "name": "floatBufferViews",
      "target": 34962
    }
  ],
  "buffers": [
    {
      "byteLength": 101088,
      "uri": "scene.bin"
    }
  ],
  "images": [
    {
      "uri": "textures/lambert1_baseColor.jpeg"
    },
    {
      "uri": "textures/lambert1_metallicRoughness.png"
    },
    {
      "uri": "textures/lambert1_normal.png"
    }
  ],
  "materials": [
    {
      "doubleSided": true,
      "name": "lambert1",
      "normalTexture": {
        "index": 2
      },
      "occlusionTexture": {
        "index": 1
      },
      "pbrMetallicRoughness": {
        "baseColorTexture": {
          "index": 0
        },
        "metallicRoughnessTexture": {
          "index": 1
        }
      }
    }
  ],
  "meshes": [
    {
      "name": "defaultMaterial",
      "primitives": [
        {
          "attributes": {
            "NORMAL": 1,
            "POSITION": 0,
            "TANGENT": 2,
            "TEXCOORD_0": 3
          },
          "indices": 4,
          "material": 0,
          "mode": 4
        }
      ]
    },
    {
      "name": "defaultMaterial",
      "primitives": [
        {
          "attributes": {
            "NORMAL": 6,
            "POSITION": 5,
            "TANGENT": 7,
            "TEXCOORD_0": 8
          },
          "indices": 9,
          "material": 0,
          "mode": 4
        }
      ]
    },
    {
      "name": "defaultMaterial",
      "primitives": [
        {
          "attributes": {
            "NORMAL": 11,
            "POSITION": 10,
            "TANGENT": 12,
            "TEXCOORD_0": 13
          },
          "indices": 14,
          "material": 0,
          "mode": 4
        }
      ]
    }
  ],
  "nodes": [
    {
      "children": [
        1
      ],
      "matrix": [
        0.10000000149011612,
        0.0,
        0.0,
        0.0,
        0.0,
        2.2204460823375376e-17,
        -0.10000000149011612,
        0.0,
        0.0,
        0.10000000149011612,
        2.2204460823375376e-17,
        0.0,
        0.0,
        0.0,
        0.0,
        1.0
      ],
      "name": "Sketchfab_model"
    },
    {
      "children": [
        2,
        4,
        6
      ],
      "matrix": [
        1.0,
        0.0,
        0.0,
        0.0,
        0.0,
        -4.371139006309477e-08,
        0.999999999999999,
        0.0,
        0.0,
        -0.999999999999999,
        -4.371139006309477e-08,
        0.0,
        0.0,
        0.0,
        0.0,
        1.0
      ],
      "name": "Collada visual scene group"
    },
    {
      "children": [
        3
      ],
      "name": "CanOpener__low"
    },
    {
      "mesh": 0,
      "name": "defaultMaterial"
    },
    {
      "children": [
        5
      ],
      "name": "CanTop_low"
    },
    {
      "mesh": 1,
      "name": "defaultMaterial"
    },
    {
      "children": [
        7
      ],
      "name": "Can_low"
    },
    {
      "mesh": 2,
      "name": "defaultMaterial"
    }
  ],
  "samplers": [
    {
      "magFilter": 9729,
      "minFilter": 9987,
      "wrapS": 10497,
      "wrapT": 10497
    }
  ],
  "scene": 0,
  "scenes": [
    {
      "name": "Sketchfab_Scene",
      "nodes": [
        0
      ]
    }
  ],
  "textures": [
    {
      "sampler": 0,
      "source": 0
    },
    {
      "sampler": 0,
      "source": 1
    },
    {
      "sampler": 0,
      "source": 2
    }
  ]
}
