{
  "accessors": [
    {
      "bufferView": 2,
      "componentType": 5126,
      "count": 1049,
      "max": [
        -207.8019256591797,
        -172.6859893798828,
        50.375938415527344
      ],
      "min": [
        -254.60879516601563,
        -189.1859893798828,
        16.519540786743164
      ],
      "type": "VEC3"
    },
    {
      "bufferView": 2,
      "byteOffset": 12588,
      "componentType": 5126,
      "count": 1049,
      "max": [
        0.9999877214431763,
        1.0,
        1.0
      ],
      "min": [
        -1.0,
        -1.0,
        -0.9911235570907593
      ],
      "type": "VEC3"
    },
    {
      "bufferView": 3,
      "componentType": 5126,
      "count": 1049,
      "max": [
        0.9927163124084473,
        1.0,
        0.99981689453125,
        1.0
      ],
      "min": [
        -1.0,
        -1.0,
        -1.0,
        1.0
      ],
      "type": "VEC4"
    },
    {
      "bufferView": 1,
      "componentType": 5126,
      "count": 1049,
      "max": [
        0.9870079159736633,
        0.9885512590408325
      ],
      "min": [
        0.011404972523450851,
        0.007483562454581261
      ],
      "type": "VEC2"
    },
    {
      "bufferView": 0,
      "componentType": 5125,
      "count": 3276,
      "type": "SCALAR"
    }
  ],
  "asset": {
    "extras": {
      "author": "dupak88 (https://sketchfab.com/dupak88)",
      "license": "CC-BY-4.0 (http://creativecommons.org/licenses/by/4.0/)",
      "source": "https://sketchfab.com/3d-models/canister-low-poly-f2e5fa066a9540af8c8212ea149239dd",
      "title": "Canister_low_poly"
    },
    "generator": "Sketchfab-12.67.0",
    "version": "2.0"
  },
  "bufferViews": [
    {
      "buffer": 0,
      "byteLength": 13104,
      "name": "floatBufferViews",
      "target": 34963
    },
    {
      "buffer": 0,
      "byteLength": 8392,
      "byteOffset": 13104,
      "byteStride": 8,
      "name": "floatBufferViews",
      "target": 34962
    },
    {
      "buffer": 0,
      "byteLength": 25176,
      "byteOffset": 21496,
      "byteStride": 12,
      "name": "floatBufferViews",
      "target": 34962
    },
    {
      "buffer": 0,
      "byteLength": 16784,
      "byteOffset": 46672,
      "byteStride": 16,
      "name": "floatBufferViews",
      "target": 34962
    }
  ],
  "buffers": [
    {
      "byteLength": 63456,
      "uri": "scene.bin"
    }
  ],
  "images": [
    {
      "uri": "textures/Material_3_baseColor.png"
    },
    {
      "uri": "textures/Material_3_metallicRoughness.png"
    },
    {
      "uri": "textures/Material_3_normal.png"
    }
  ],
  "materials": [
    {
      "doubleSided": true,
      "name": "Material_3",
      "normalTexture": {
        "index": 2
      },
      "occlusionTexture": {
        "index": 1
      },
      "pbrMetallicRoughness": {
        "baseColorTexture": {
          "index": 0
        },
        "metallicRoughnessTexture": {
          "index": 1
        }
      }
    }
  ],
  "meshes": [
    {
      "name": "Object037_Material #3_0",
      "primitives": [
        {
          "attributes": {
            "NORMAL": 1,
            "POSITION": 0,
            "TANGENT": 2,
            "TEXCOORD_0": 3
          },
          "indices": 4,
          "material": 0,
          "mode": 4
        }
      ]
    }
  ],
  "nodes": [
    {
      "children": [
        1
      ],
      "matrix": [
        1.0,
        0.0,
        0.0,
        0.0,
        0.0,
        2.220446049250313e-16,
        -1.0,
        0.0,
        0.0,
        1.0,
        2.220446049250313e-16,
        0.0,
        7.76799424784258e-09,
        -3.2840745234352653e-07,
        -7.29211030100544e-23,
        1.0
      ],
      "name": "Sketchfab_model"
    },
    {
      "children": [
        2
      ],
      "matrix": [
        1.0,
        0.0,
        0.0,
        0.0,
        0.0,
        0.0,
        1.0,
        0.0,
        0.0,
        -1.0,
        0.0,
        0.0,
        0.0,
        0.0,
        0.0,
        1.0
      ],
      "name": "dfbfbfeac97d4a48a22e192f8f86e4a7.fbx"
    },
    {
      "children": [
        3
      ],
      "name": "RootNode"
    },
    {
      "children": [
        4
      ],
      "matrix": [
        7.549790115302102e-08,
        0.9999999999999972,
        0.0,
        0.0,
        0.0,
        0.0,
        -1.0,
        0.0,
        -0.9999999999999972,
        7.549790120853217e-08,
        0.0,
        0.0,
        -502.5692443847656,
        33.44773864746094,
        180.9359893798828,
        1.0
      ],
      "name": "Object037"
    },
    {
      "children": [
        5
      ],
      "matrix": [
        1.0,
        0.0,
        -0.0,
        0.0,
        0.0,
        1.0,
        0.0,
        0.0,
        0.0,
        0.0,
        1.0,
        0.0,
        231.20535278320313,
        180.9359893798828,
        -33.44773864746094,
        1.0
      ],
      "name": "Object_4"
    },
    {
      "mesh": 0,
      "name": "Object037_Material #3_0"
    }
  ],
  "samplers": [
    {
      "magFilter": 9729,
      "minFilter": 9987,
      "wrapS": 10497,
      "wrapT": 10497
    }
  ],
  "scene": 0,
  "scenes": [
    {
      "name": "Sketchfab_Scene",
      "nodes": [
        0
      ]
    }
  ],
  "textures": [
    {
      "sampler": 0,
      "source": 0
    },
    {
      "sampler": 0,
      "source": 1
    },
    {
      "sampler": 0,
      "source": 2
    }
  ]
}
