{
  "accessors": [
    {
      "bufferView": 2,
      "componentType": 5126,
      "count": 62267,
      "max": [
        2.125476837158203,
        1.8292372226715088,
        1.1217221021652222
      ],
      "min": [
        -1.895761251449585,
        -1.6350758075714111,
        -0.039357781410217285
      ],
      "type": "VEC3"
    },
    {
      "bufferView": 2,
      "byteOffset": 747204,
      "componentType": 5126,
      "count": 62267,
      "max": [
        0.9997280836105347,
        0.9999962449073792,
        0.9999969005584717
      ],
      "min": [
        -0.9999398589134216,
        -0.9999769926071167,
        -0.9077791571617126
      ],
      "type": "VEC3"
    },
    {
      "bufferView": 3,
      "componentType": 5126,
      "count": 62267,
      "max": [
        0.9999797344207764,
        0.9999983906745911,
        0.999911367893219,
        1.0
      ],
      "min": [
        -0.999720573425293,
        -0.999987781047821,
        -0.999790608882904,
        -1.0
      ],
      "type": "VEC4"
    },
    {
      "bufferView": 1,
      "componentType": 5126,
      "count": 62267,
      "max": [
        0.9708523154258728,
        0.99609375
      ],
      "min": [
        0.00390625,
        0.00390625
      ],
      "type": "VEC2"
    },
    {
      "bufferView": 0,
      "componentType": 5125,
      "count": 358404,
      "type": "SCALAR"
    }
  ],
  "asset": {
    "extras": {
      "author": "shash_wut (https://sketchfab.com/Shashwat.Patkar.Sh)",
      "license": "CC-BY-4.0 (http://creativecommons.org/licenses/by/4.0/)",
      "source": "https://sketchfab.com/3d-models/optimized-rubble-photoscan-4b1e5269b3554ceda313b7302d0ddd67",
      "title": "Optimized Rubble Photoscan"
    },
    "generator": "Sketchfab-15.5.0",
    "version": "2.0"
  },
  "bufferViews": [
    {
      "buffer": 0,
      "byteLength": 1433616,
      "name": "floatBufferViews",
      "target": 34963
    },
    {
      "buffer": 0,
      "byteLength": 498136,
      "byteOffset": 1433616,
      "byteStride": 8,
      "name": "floatBufferViews",
      "target": 34962
    },
    {
      "buffer": 0,
      "byteLength": 1494408,
      "byteOffset": 1931752,
      "byteStride": 12,
      "name": "floatBufferViews",
      "target": 34962
    },
    {
      "buffer": 0,
      "byteLength": 996272,
      "byteOffset": 3426160,
      "byteStride": 16,
      "name": "floatBufferViews",
      "target": 34962
    }
  ],
  "buffers": [
    {
      "byteLength": 4422432,
      "uri": "scene.bin"
    }
  ],
  "images": [
    {
      "uri": "textures/bake_baseColor.jpeg"
    },
    {
      "uri": "textures/bake_metallicRoughness.png"
    },
    {
      "uri": "textures/bake_normal.png"
    }
  ],
  "materials": [
    {
      "doubleSided": true,
      "name": "bake",
      "normalTexture": {
        "index": 2
      },
      "occlusionTexture": {
        "index": 1
      },
      "pbrMetallicRoughness": {
        "baseColorTexture": {
          "index": 0
        },
        "metallicFactor": 0.0,
        "metallicRoughnessTexture": {
          "index": 1
        }
      }
    }
  ],
  "meshes": [
    {
      "name": "Object_0",
      "primitives": [
        {
          "attributes": {
            "NORMAL": 1,
            "POSITION": 0,
            "TANGENT": 2,
            "TEXCOORD_0": 3
          },
          "indices": 4,
          "material": 0,
          "mode": 4
        }
      ]
    }
  ],
  "nodes": [
    {
      "children": [
        1
      ],
      "matrix": [
        1.0,
        0.0,
        0.0,
        0.0,
        0.0,
        2.220446049250313e-16,
        -1.0,
        0.0,
        0.0,
        1.0,
        2.220446049250313e-16,
        0.0,
        0.0,
        0.0,
        0.0,
        1.0
      ],
      "name": "Sketchfab_model"
    },
    {
      "children": [
        2
      ],
      "name": "root"
    },
    {
      "children": [
        3
      ],
      "matrix": [
        1.0,
        0.0,
        0.0,
        0.0,
        0.0,
        2.220446049250313e-16,
        1.0,
        0.0,
        0.0,
        -1.0,
        2.220446049250313e-16,
        0.0,
        0.0,
        0.0,
        0.0,
        1.0
      ],
      "name": "GLTF_SceneRootNode"
    },
    {
      "children": [
        4
      ],
      "matrix": [
        0.4925852087615964,
        1.2096585566556683e-08,
        -0.8702642197110566,
        0.0,
        0.8702642197110424,
        -1.8809787571960612e-07,
        0.4925852087615857,
        0.0,
        1.5773625200443675e-07,
        0.9999999999999822,
        1.031814569341094e-07,
        -0.0,
        0.0,
        0.0,
        0.0,
        1.0
      ],
      "name": "bake_0"
    },
    {
      "mesh": 0,
      "name": "Object_4"
    }
  ],
  "samplers": [
    {
      "magFilter": 9729,
      "minFilter": 9987,
      "wrapS": 10497,
      "wrapT": 10497
    }
  ],
  "scene": 0,
  "scenes": [
    {
      "name": "Sketchfab_Scene",
      "nodes": [
        0
      ]
    }
  ],
  "textures": [
    {
      "sampler": 0,
      "source": 0
    },
    {
      "sampler": 0,
      "source": 1
    },
    {
      "sampler": 0,
      "source": 2
    }
  ]
}
